<svg xmlns="http://www.w3.org/2000/svg" xmlns:xlink="http://www.w3.org/1999/xlink" width="784.412" height="354.785" viewBox="0 0 784.412 354.785"><defs><filter id="a" x="209.459" y="0" width="574.953" height="352.291" filterUnits="userSpaceOnUse"><feOffset dy="3" input="SourceAlpha"/><feGaussianBlur stdDeviation="3" result="b"/><feFlood flood-opacity="0.161"/><feComposite operator="in" in2="b"/><feComposite in="SourceGraphic"/></filter><filter id="c" x="0" y="2.494" width="574.953" height="352.291" filterUnits="userSpaceOnUse"><feOffset dy="3" input="SourceAlpha"/><feGaussianBlur stdDeviation="3" result="d"/><feFlood flood-opacity="0.161"/><feComposite operator="in" in2="d"/><feComposite in="SourceGraphic"/></filter></defs><g transform="translate(-14.421 -171.371)"><g transform="matrix(1, 0, 0, 1, 14.42, 171.37)" filter="url(#a)"><path d="M25.243,551.37,324.718,0S1.453,5.6.053,18.192,25.243,551.37,25.243,551.37Z" transform="matrix(0.02, 1, -1, 0.02, 769.75, 6)" fill="#fbfbc4"/></g><g transform="matrix(1, 0, 0, 1, 14.42, 171.37)" filter="url(#c)"><path d="M25.243,0,324.718,551.37S1.453,545.772.053,533.178,25.243,0,25.243,0Z" transform="matrix(-0.02, 1, -1, -0.02, 565.95, 18.12)" fill="#7db6b9"/></g></g></svg>